<?xml version="1.0" encoding="UTF-8"?><svg id="Layer_1" xmlns="http://www.w3.org/2000/svg" viewBox="0 0 34 34"><defs><style>.cls-1{fill:none;stroke:#000;stroke-width:1.02px;}.cls-1,.cls-2{stroke-miterlimit:10;}.cls-2{fill:#eae3dc;stroke:#eae3dc;stroke-width:.41px;}.cls-3{stroke-width:0px;}</style></defs><circle class="cls-2" cx="16.84" cy="16.88" r="16.16"/><path class="cls-3" d="M7.46,14.31l-.63,1.16c-.17.37-.5.58-.74.47l-.25-.11c-.25-.11-.74-.5-.57-.87l2.76-5.18.34-.71c1.05-1.76,6.22-.63,11.55,2.52,5.33,3.15,8.8,7.13,7.75,8.89l-1.37,2.04-2.41,3.19c-.26.31-.65.42-.88.23l-.23-.19c-.23-.19-.2-.59.06-.9l1.28-2.35.7-1.11c.81-1.35-2.17-4.6-6.65-7.25-4.48-2.65-8.77-3.7-9.58-2.34l-1.12,2.52Z"/><line class="cls-1" x1="11.83" y1="10.17" x2="8.06" y2="16.52"/><line class="cls-1" x1="13.47" y1="11.13" x2="9.7" y2="17.48"/><line class="cls-1" x1="15.23" y1="11.9" x2="11.34" y2="18.45"/><line class="cls-1" x1="16.87" y1="12.87" x2="12.98" y2="19.42"/><line class="cls-1" x1="18.4" y1="14.03" x2="14.63" y2="20.38"/><line class="cls-1" x1="20.04" y1="15" x2="16.27" y2="21.35"/><line class="cls-1" x1="21.8" y1="15.77" x2="17.91" y2="22.32"/><line class="cls-1" x1="23.44" y1="16.73" x2="19.55" y2="23.28"/><line class="cls-1" x1="25.09" y1="17.7" x2="21.2" y2="24.25"/></svg>