<?xml version="1.0" encoding="UTF-8"?><svg id="Layer_1" xmlns="http://www.w3.org/2000/svg" viewBox="0 0 34 34"><defs><style>.cls-1{stroke-width:1.01px;}.cls-1,.cls-2{stroke:#000;stroke-linecap:round;}.cls-1,.cls-3{stroke-miterlimit:10;}.cls-2{fill:none;stroke-linejoin:round;stroke-width:.98px;}.cls-3{stroke:#eae3dc;stroke-width:.41px;}.cls-3,.cls-4{fill:#eae3dc;}.cls-4{stroke-width:0px;}</style></defs><circle class="cls-3" cx="17.12" cy="16.96" r="16.3"/><path class="cls-1" d="M10.59,27.86c.1-12.96,12.05-21.46,12.05-21.46-8.48,10.53-8.81,22.01-8.64,25.71,0,0-1.79-.18-3.57-1.29l.16-2.96Z"/><path class="cls-4" d="M16.58,21.48c2.6.63,2.08,2.57-.11,3.36-2.6,1.07-8.92,1.33-10.41-1.55-.29-1.57,1.71-1.97,2.8-2.12-.71.31-1.46.63-1.93,1.16-.53.54-.16.99.47,1.33,2.64,1.14,6.01,1.08,8.79.4,2.02-.57,2.23-1.57.39-2.58h0Z"/><path class="cls-2" d="M16.5,21.28c.8.34,1.28.79,1.28,1.27,0,1.09-2.42,1.97-5.41,1.97s-5.41-.88-5.41-1.97c0-.82,1.36-1.51,3.31-1.81"/><path class="cls-4" d="M20.3,14.33c3.07.85,1.58,2.95-.69,3.54-2.02.93-10.66.93-9.88-2.53,1-1.7,3.42-1.67,5.13-1.67-1.27.27-2.55.56-3.64,1.23-1.25.75-.71,1.41.67,1.88,2.37.76,5.06.78,7.5.29,2.03-.43,3.27-1.48.91-2.74h0Z"/><path class="cls-2" d="M20.22,14.13c.8.34,1.28.79,1.28,1.27,0,1.09-2.42,1.97-5.41,1.97s-5.41-.88-5.41-1.97c0-.82,1.36-1.51,3.31-1.81"/><path class="cls-4" d="M24.76,7.45c.86.19,2.11.89,1.65,1.96-.24.5-.66.78-1.06,1.03-2.03,1.09-4.43,1.21-6.67,1.03-1.57-.25-3.6-.5-4.48-2.05-.43-.87.47-1.77,1.14-2.02,1.25-.56,2.65-.67,3.98-.61-1.46.37-3.51.62-4.35,1.96,0,1.15,2.77,1.53,3.82,1.66,1.72.4,10.52-.23,5.97-2.96h0Z"/><path class="cls-2" d="M24.68,7.25c.8.34,1.28.79,1.28,1.27,0,1.09-2.42,1.97-5.41,1.97s-5.41-.88-5.41-1.97c0-.82,1.36-1.51,3.31-1.81"/></svg>