<?xml version="1.0" encoding="UTF-8"?><svg id="Layer_1" xmlns="http://www.w3.org/2000/svg" viewBox="0 0 34 34"><defs><style>.cls-1{stroke-width:.36px;}.cls-1,.cls-2,.cls-3{stroke:#000;stroke-linecap:round;stroke-linejoin:round;}.cls-2{stroke-width:.38px;}.cls-4{fill:#eae3dc;stroke:#eae3dc;stroke-miterlimit:10;stroke-width:.41px;}.cls-5{stroke-width:0px;}.cls-3{fill:none;stroke-width:.87px;}</style></defs><circle class="cls-4" cx="17.1" cy="16.83" r="16.17"/><path class="cls-3" d="M28.52,25.27c-.5-.24-.97-.71-1.34-1.37-.35-.61-.67-1.44-1.15-1.49-.45-.06-.83.59-1.11,1.22s-.59,1.34-1.04,1.49c-1.05.36-1.79-2.6-2.84-2.22-.7.26-1.02,1.88-1.72,2.19-.51.22-1.01-.35-1.41-.94s-.83-1.27-1.35-1.32c-.86-.08-1.59,1.61-2.43,1.27-.31-.13-.57-.52-.89-.62-.54-.17-1.03.57-1.58.72-.89.24-1.73-1.14-2.61-.85-.31.1-.59.4-.88.61s-.64.32-.91.04"/><path class="cls-3" d="M28.48,22.33c-.5-.24-.97-.71-1.34-1.37-.35-.61-.67-1.44-1.15-1.49-.45-.06-.83.59-1.11,1.22s-.59,1.34-1.04,1.49c-1.05.36-1.79-2.6-2.84-2.22-.7.26-1.02,1.88-1.72,2.19-.51.22-1.01-.35-1.41-.94s-.83-1.27-1.35-1.32c-.86-.08-1.59,1.61-2.43,1.27-.31-.13-.57-.52-.89-.62-.54-.17-1.03.57-1.58.72-.89.24-1.73-1.14-2.61-.85-.31.1-.59.4-.88.61s-.64.32-.91.04"/><polygon class="cls-1" points="10.78 19.09 11.92 15.31 14.12 18.04 10.78 19.09"/><polygon class="cls-2" points="15.56 16.47 16.55 12.54 19.04 15.26 15.56 16.47"/><path class="cls-5" d="M10.03,7.3c.39,4.4,4.11,6.72,8.05,7.78.07,0,.08.11,0,.12-3.25.29-6.97-1.37-8.05-4.64-.37-1.05-.4-2.21-.12-3.29.02-.07.12-.04.11.03h0Z"/><path class="cls-5" d="M7.04,8.3c-.43,4.4,2.81,7.37,6.48,9.16.07.01.06.13-.01.12-3.25-.33-6.6-2.65-7.06-6.07-.17-1.1.01-2.25.49-3.25.04-.06.13-.02.11.05h0Z"/></svg>